<?xml version="1.0" encoding="UTF-8"?>
<svg width="100px" height="20px" viewBox="0 0 100 20" version="1.1" xmlns="http://www.w3.org/2000/svg" xmlns:xlink="http://www.w3.org/1999/xlink">
    <!-- Generator: Sketch 49 (51002) - http://www.bohemiancoding.com/sketch -->
    <title>vrmd-brand/logo/lampertheimer-zeitung copy</title>
    <desc>Created with Sketch.</desc>
    <defs></defs>
    <g id="vrmd-brand/logo/lampertheimer-zeitung-copy" stroke="none" stroke-width="1" fill="none" fill-rule="evenodd">
        <path d="M77.7340112,10.8767194 C77.7340112,10.8767194 76.2419088,11.3336984 75.3351848,12.0206553 L75.3351848,13.0754034 C75.7662584,13.4866101 76.6696759,13.8018064 77.1741054,13.4340153 L77.2561563,13.5450349 C76.6805752,14.0021379 76.1233636,14.4290981 75.6092594,14.9077848 C74.7032702,14.3658356 73.5682731,13.8599832 73.5682731,13.8599832 C73.5682731,13.8599832 73.8969667,13.536972 73.9201124,13.3254766 L73.9201124,8.91136267 C73.8583905,8.77950365 73.865126,8.66166163 73.6013384,8.50586208 L76.3485751,7.45433914 L77.7340112,10.8767194 Z M75.3402058,11.576453 C75.712864,11.3215421 76.497124,10.9558597 76.497124,10.9558597 C76.1008302,10.2872613 75.3406957,8.31880338 75.3406957,8.31880338 L75.3402058,11.576453 Z M62.698239,8.3474576 C63.1179234,8.05372086 63.2119759,7.79657717 63.4654765,7.51201971 L63.5477724,7.51201971 C63.5477724,7.51201971 63.8712,8.27241084 64.2060168,8.77714681 C63.9948887,9.13898383 63.6167196,10.3135586 63.6167196,10.3135586 L63.5136049,10.3131865 C63.5136049,10.3131865 63.1585815,9.21452676 62.6835434,8.70011534 L62.652315,8.84214599 L62.652315,13.2156975 C62.9258998,13.4795395 63.3968966,13.6180969 63.7941701,13.632238 L63.7941701,13.7431335 L62.6431302,14.8991017 C62.0605686,14.6146683 61.6388023,14.2739188 60.9439411,13.8996773 C61.0811009,13.7746408 61.1632743,13.5803875 61.1632743,13.3722413 L61.1632743,9.15250465 C60.9712506,8.96507382 60.5875707,8.514049 60.5875707,8.514049 C61.0681197,8.22142866 61.7376308,7.54278267 61.7376308,7.54278267 C62.2224661,8.03374974 62.4915197,8.2022018 62.698239,8.3474576 Z M60.5815699,10.8767194 C60.5815699,10.8767194 59.089835,11.3336984 58.1829885,12.0206553 L58.1829885,13.0754034 C58.6135722,13.4866101 59.5172346,13.8018064 60.0216641,13.4340153 L60.1037151,13.5450349 C59.5282564,14.0021379 58.9706774,14.4290981 58.4569406,14.9077848 C57.5508289,14.3658356 56.4159543,13.8599832 56.4159543,13.8599832 C56.4159543,13.8599832 56.7447703,13.536972 56.7675487,13.3254766 L56.7675487,8.91136267 C56.7058268,8.77950365 56.7128072,8.66166163 56.4491421,8.50586208 L59.1962563,7.45433914 L60.5815699,10.8767194 Z M58.187887,11.576453 C58.5603003,11.3215421 59.3448052,10.9558597 59.3448052,10.9558597 C58.9486339,10.2872613 58.187887,8.31880338 58.187887,8.31880338 L58.187887,11.576453 Z M45.9629104,10.8767194 C45.9629104,10.8767194 44.4711755,11.3336984 43.5640841,12.0206553 L43.5640841,13.0754034 C43.9952801,13.4866101 44.8988201,13.8018064 45.4030047,13.4340153 L45.4853005,13.5450349 C44.9097194,14.0021379 44.3522629,14.4290981 43.8382811,14.9077848 C42.9324143,14.3658356 41.7975397,13.8599832 41.7975397,13.8599832 C41.7975397,13.8599832 42.1259884,13.536972 42.1491341,13.3254766 L42.1491341,8.91136267 C42.0874122,8.77950365 42.0941477,8.66166163 41.8302376,8.50586208 L44.5775968,7.45433914 L45.9629104,10.8767194 Z M43.5691051,11.576453 C43.9417633,11.3215421 44.7263906,10.9558597 44.7263906,10.9558597 C44.3299744,10.2872613 43.5694725,8.31880338 43.5694725,8.31880338 L43.5691051,11.576453 Z M67.931374,5.10568568 L73.0169398,5.10568568 L70.8258125,7.0413959 C70.8258125,7.0413959 71.5794565,7.75638684 72.2264342,8.88729808 C72.2451712,8.91979767 72.4379297,8.78992336 72.4565442,8.82329126 C72.4738116,8.85492254 72.3171801,9.04979603 72.334325,9.08192348 C72.7658885,9.88486178 73.05025,10.8772156 73.138914,11.9530512 C73.4472786,15.7143204 70.8373241,17.0281969 69.3610197,16.9995426 C66.9253316,16.9522818 65.8748348,14.7143998 66.1699732,13.4182617 C66.5443459,11.7749237 67.530794,11.0730815 68.4186586,10.5229453 C69.3065232,9.97280914 70.4689522,9.54398824 70.4689522,9.54398824 C70.4689522,9.54398824 69.6475856,8.63424786 68.7095108,8.36321121 L70.6291352,6.75671439 C68.6059062,6.65685878 66.3857549,7.0413959 66.3857549,7.0413959 L67.931374,5.10568568 Z M70.6875506,9.85261028 C69.4956077,10.2820514 68.0217525,11.0780432 67.2174085,12.5860489 C66.5014835,13.9279594 67.2252462,15.4522149 68.3152989,15.9502525 C69.3675103,16.431172 71.21782,15.8175252 71.6988589,14.2855789 C72.4685457,11.8340928 70.6875506,9.85261028 70.6875506,9.85261028 Z M93.2089395,8.65942883 L92.9923005,8.93443489 L92.9941375,13.4606848 C93.0896595,13.6719321 93.4008407,13.9037708 93.4008407,13.9037708 C93.0987218,14.1441685 92.5784944,14.8752852 92.5784944,14.8752852 C92.1641984,14.4446036 91.3327898,13.9103451 91.3327898,13.9103451 C91.4612546,13.9103451 91.5717172,13.6816076 91.5717172,13.6816076 L91.5633897,9.23536619 C91.5633897,9.23536619 91.1503183,8.75444671 90.9522939,8.80567698 C90.676015,8.86459799 90.4858283,9.12385043 90.4858283,9.12385043 L90.4981971,13.4317825 C90.4981971,13.4317825 90.691323,13.7433816 91.0261398,13.9037708 C90.7129991,14.1218406 90.067246,14.9031952 90.067246,14.9031952 C89.5922079,14.4111117 88.8609749,13.8963281 88.8609749,13.8963281 C89.0930443,13.7877894 89.1217009,13.6319899 89.1217009,13.6319899 L89.1274567,9.30954464 C89.1274567,9.30954464 88.9901745,8.73571604 88.6421316,8.70482902 L88.6034329,8.62171939 C89.3094383,8.1764006 89.7214075,7.546504 89.7214075,7.546504 C89.9550689,7.96639372 90.8467299,8.56589948 90.8467299,8.56589948 C91.4954221,8.21485431 92.1087222,7.546504 92.1087222,7.546504 C92.3971251,8.05545748 93.2089395,8.65942883 93.2089395,8.65942883 Z M83.7694083,13.7901463 L83.9861698,13.5151402 L83.9964567,8.98889031 C83.9009348,8.77751894 83.5773847,8.54592836 83.5773847,8.54592836 C83.8797485,8.30553065 84.399731,7.57404182 84.399731,7.57404182 C84.8139045,8.00497148 85.645558,8.53922998 85.645558,8.53922998 C85.5172157,8.53922998 85.4066306,8.76796754 85.4066306,8.76796754 L85.4150806,13.214333 C85.4150806,13.214333 85.9400841,13.8340579 86.1371288,13.7829517 C86.4138977,13.7237826 86.4927645,13.4459235 86.4927645,13.4459235 L86.4803956,9.01779262 C86.4803956,9.01779262 86.2871473,8.70619351 85.9522081,8.54592836 C86.2651038,8.32773456 86.9111018,7.546504 86.9111018,7.546504 C87.38614,8.03833937 88.117373,8.55337102 88.117373,8.55337102 C87.885426,8.66166163 87.856647,8.81758523 87.856647,8.81758523 L87.8506462,13.1399064 C87.8506462,13.1399064 87.9506994,13.6634971 88.2991097,13.6945082 L88.3747925,13.8279798 C87.6689095,14.2732986 87.3825885,14.9031952 87.3825885,14.9031952 C87.149172,14.4830574 86.0329119,13.9103451 86.0329119,13.9103451 C85.3844646,14.2613903 85.0081325,14.9031952 85.0081325,14.9031952 C84.7199745,14.3941176 83.7694083,13.7901463 83.7694083,13.7901463 Z M55.7871013,8.65942883 L55.5704623,8.93443489 L55.5602978,13.4606848 C55.6555748,13.6719321 55.9791249,13.9037708 55.9791249,13.9037708 C55.6771285,14.1441685 55.1569011,14.8752852 55.1569011,14.8752852 C54.743095,14.4446036 53.9109516,13.9103451 53.9109516,13.9103451 C54.0396613,13.9103451 54.1501239,13.6816076 54.1501239,13.6816076 L54.1419188,9.23536619 C54.1419188,9.23536619 53.7283576,8.63424786 53.531068,8.68547812 C53.2545441,8.74439913 53.1639207,9.00389966 53.1639207,9.00389966 L53.1759222,13.4317825 C53.1759222,13.4317825 53.3689256,13.7433816 53.7042322,13.9037708 C53.391214,14.1218406 52.7450935,14.9031952 52.7450935,14.9031952 C52.2703003,14.4111117 51.5389448,13.8963281 51.5389448,13.8963281 C51.7708918,13.7877894 51.7995484,13.6319899 51.7995484,13.6319899 L51.8055491,9.30954464 C51.8055491,9.30954464 51.6058102,8.78607799 51.2576449,8.75531502 C50.8641678,8.86955976 50.853146,9.04160911 50.853146,9.04160911 L50.8413894,13.5151402 C50.8413894,13.5151402 50.9844275,13.7657096 51.2516441,13.9103451 C50.7208848,14.2664761 50.2516024,14.9121263 50.2516024,14.9121263 C49.8889863,14.5448314 49.0977459,13.9103451 49.0977459,13.9103451 C49.2874428,13.8102414 49.3263863,13.6208259 49.3263863,13.6208259 L49.3153646,9.07956664 C49.1577533,8.88518933 48.7983212,8.60125209 48.7983212,8.60125209 C49.5841732,8.05545748 50.0440258,7.546504 50.0440258,7.546504 C50.2776873,7.9441898 51.1818396,8.62171939 51.1818396,8.62171939 C51.8880899,8.1764006 52.2737293,7.546504 52.2737293,7.546504 C52.5071458,7.96639372 53.4251366,8.56589948 53.4251366,8.56589948 C54.0735839,8.21485431 54.5483771,7.546504 54.5483771,7.546504 C54.83678,8.05545748 55.7871013,8.65942883 55.7871013,8.65942883 Z M82.3149025,7.78826621 L83.2022772,7.78826621 L83.2022772,8.95552241 L82.3149025,8.95713499 L82.3163721,13.0705657 C82.5761184,13.4650264 83.0483399,13.7100137 83.0483399,13.7100137 C82.5110899,14.3241567 82.4998232,14.4350522 82.1439426,14.9029471 C81.4109951,14.3444999 81.389319,14.311008 80.6640867,13.820165 C80.8505995,13.7433816 80.8558655,13.514644 80.8558655,13.514644 L80.8558655,7.40720233 C80.6844158,7.24296777 80.6844158,7.24296777 80.6844158,7.24296777 C81.2034185,6.8198529 82.1123469,5.50684472 82.3084119,5.10295671 L82.3149025,7.78826621 Z M78.8404741,7.33376815 C78.4183404,6.8994893 78.4183404,6.83126497 77.9463639,6.42799718 C77.9463639,6.42799718 78.569951,5.82427391 78.8404741,5.5224743 C79.1092828,5.87550418 79.7345844,6.42799718 79.7345844,6.42799718 C79.7345844,6.42799718 79.1598604,6.96783767 78.8404741,7.33376815 Z M78.8650894,7.60157964 C79.1092828,7.99182279 79.4020944,8.21770733 79.6901299,8.47460293 L79.6372254,8.63412381 L79.6331841,13.4512574 C79.6994372,13.646255 79.9089732,13.7487155 80.0369482,13.8953358 L79.024905,14.9121263 C78.6374287,14.4438594 78.3681302,14.1535959 77.9609371,13.8757368 L78.2348893,13.514644 L78.2348893,9.07286825 C78.1047099,8.88556147 78.0813193,8.75990466 77.8512093,8.51777032 L78.8650894,7.60157964 Z M47.2743782,7.33376815 C46.8522446,6.8994893 46.8522446,6.83126497 46.3803905,6.42799718 C46.3803905,6.42799718 47.0038551,5.82427391 47.2743782,5.5224743 C47.5433094,5.87550418 48.1684885,6.42799718 48.1684885,6.42799718 C48.1684885,6.42799718 47.5937646,6.96783767 47.2743782,7.33376815 Z M47.273521,7.60157964 C47.5174694,7.99182279 47.8104035,8.21770733 48.0981941,8.47460293 L48.0455345,8.63412381 L48.0412483,13.4512574 C48.1076238,13.646255 48.3171599,13.7487155 48.4450124,13.8953358 L47.4330917,14.9121263 C47.0454929,14.4438594 46.7759494,14.1535959 46.3691238,13.8757368 L46.6431984,13.514644 L46.6431984,9.07286825 C46.5130191,8.88556147 46.4893835,8.75990466 46.2592735,8.51777032 L47.273521,7.60157964 Z M31.7025808,8.3816938 C32.1226326,8.08795707 32.2163176,7.83106147 32.4699408,7.546504 L32.5522366,7.546504 C32.5522366,7.546504 32.8756642,8.30677109 33.210481,8.81150706 C32.9994754,9.17334408 32.6210614,10.3480429 32.6210614,10.3480429 L32.5181916,10.3475468 C32.5181916,10.3475468 32.1632907,9.24888702 31.6880076,8.73447559 L31.6566568,8.87638219 L31.6566568,13.2501817 C31.9306089,13.5137757 32.4012384,13.6525812 32.7987568,13.6665982 L32.7987568,13.7776178 L31.6475945,14.933462 C31.0652778,14.6490285 30.6435115,14.3084031 29.9485278,13.9340376 C30.0854427,13.809001 30.1676161,13.6147477 30.1676161,13.4066015 L30.1676161,9.1868649 C29.9758373,8.99955811 29.5920349,8.5482852 29.5920349,8.5482852 C30.0724615,8.25566486 30.7422175,7.57714293 30.7422175,7.57714293 C31.2270528,8.06798594 31.4959839,8.23643801 31.7025808,8.3816938 Z M22.5867222,8.37896483 C22.984853,8.29126556 24.0457593,7.546504 24.0457593,7.546504 C24.0457593,7.546504 25.9271749,10.5920379 24.86137,13.1956023 C24.5052445,14.0656485 23.3647365,14.9121263 23.3647365,14.9121263 L22.6464847,14.5559954 L22.6538326,15.4718139 C21.7464962,16.0981132 21.1538925,16.804297 21.1538925,16.804297 L21.148994,13.7322176 L20.8474874,13.5542142 L21.1515657,13.0982276 L21.1515657,9.10065416 C21.1214395,8.91210693 20.7651915,8.57309405 20.7651915,8.57309405 C21.4098425,8.26682885 22.0015889,7.546504 22.0015889,7.546504 C22.0989478,7.79198753 22.5867222,8.37896483 22.5867222,8.37896483 Z M23.7383744,13.9282075 C24.0471064,10.7153379 23.6064806,9.90322033 22.6282376,8.71202359 L22.6256658,13.2947136 L23.7383744,13.9282075 Z M20.0732695,8.65942883 L19.8565081,8.93443489 L19.8460986,13.4606848 C19.9414982,13.6719321 20.2650482,13.9037708 20.2650482,13.9037708 C19.9628069,14.1441685 19.4428244,14.8752852 19.4428244,14.8752852 C19.0287734,14.4446036 18.1969974,13.9103451 18.1969974,13.9103451 C18.3255846,13.9103451 18.4362922,13.6816076 18.4362922,13.6816076 L18.4277197,9.23536619 C18.4277197,9.23536619 18.0144034,8.63424786 17.8167464,8.68547812 C17.540345,8.74439913 17.449844,9.00389966 17.449844,9.00389966 L17.4620904,13.4317825 C17.4620904,13.4317825 17.6550938,13.7433816 17.9901555,13.9037708 C17.6771373,14.1218406 17.0310169,14.9031952 17.0310169,14.9031952 C16.5561012,14.4111117 15.8251131,13.8963281 15.8251131,13.8963281 C16.0568151,13.7877894 16.0857166,13.6319899 16.0857166,13.6319899 L16.0914725,9.30954464 C16.0914725,9.30954464 15.8921009,8.78607799 15.5435682,8.75531502 C15.1500911,8.86955976 15.1390693,9.04160911 15.1390693,9.04160911 L15.1273128,13.5151402 C15.1273128,13.5151402 15.2703508,13.7657096 15.5375674,13.9103451 C15.0066857,14.2664761 14.5375258,14.9121263 14.5375258,14.9121263 C14.1750321,14.5448314 13.3836692,13.9103451 13.3836692,13.9103451 C13.5733661,13.8102414 13.6123097,13.6208259 13.6123097,13.6208259 L13.6012879,9.07956664 C13.4439216,8.88518933 13.0841221,8.60125209 13.0841221,8.60125209 C13.870219,8.05545748 14.3299492,7.546504 14.3299492,7.546504 C14.5637331,7.9441898 15.4680078,8.62171939 15.4680078,8.62171939 C16.1738908,8.1764006 16.5596526,7.546504 16.5596526,7.546504 C16.7933141,7.96639372 17.7111824,8.56589948 17.7111824,8.56589948 C18.3595072,8.21485431 18.8345453,7.546504 18.8345453,7.546504 C19.1229483,8.05545748 20.0732695,8.65942883 20.0732695,8.65942883 Z M12.344684,8.61514504 L12.344684,13.1117484 C12.344684,13.1117484 12.5512809,13.4985183 12.8797295,13.7230384 C12.8797295,13.7230384 11.8701357,14.7229589 11.8602161,14.9121263 C11.8578893,14.9627364 11.1449034,14.1106766 10.8098417,13.8897538 C10.5843853,13.9995329 9.76791732,14.9121263 9.76791732,14.9121263 C9.16661869,14.1330045 8.41787332,13.6399287 8.41787332,13.6399287 L8.50016918,12.9179913 L8.47261476,9.05934743 C8.46575677,8.82912134 8.39056383,8.55957323 8.39056383,8.55957323 C9.34982495,8.35824944 11.0290524,7.3658956 11.0290524,7.3658956 C11.1887456,7.74373433 12.344684,8.61514504 12.344684,8.61514504 Z M10.8362939,9.41113687 C10.6393717,9.07956664 10.1307784,8.643055 10.1307784,8.643055 L9.993986,8.68423768 L9.993986,13.1261375 C10.1228182,13.3981665 10.5946723,13.6813595 10.5946723,13.6813595 C10.6942356,13.6653578 10.8362939,13.466763 10.8362939,13.466763 L10.8362939,9.41113687 Z M98.0542308,9.07956664 L97.7345995,9.37020227 L97.7322727,13.4047409 C97.7726858,13.7167121 97.8924557,14.4906241 98.5,14.8200855 L97.8575534,15.3028657 L96.1354636,16.8111195 C95.3816972,16.6652434 94.0849251,15.7206466 94.0849251,15.7206466 C94.5048544,15.5265174 94.9289475,15.0295962 94.9289475,15.0295962 L93.7830511,13.9103451 C93.7830511,13.9103451 94.0039763,13.8073884 94.0468387,13.6261598 L94.0468387,8.91185884 C94.0549214,8.78136431 93.8001961,8.63424786 93.8001961,8.63424786 C94.7347194,8.4450804 96.4148041,7.546504 96.4148041,7.546504 C96.6358518,8.0409443 98.0542308,9.07956664 98.0542308,9.07956664 Z M97.1385668,15.5020807 C97.1385668,15.5020807 96.6511598,15.0488231 96.5468204,14.4227719 L95.4750148,15.0010661 C95.8586948,15.3482659 96.3294467,15.6271173 96.788442,15.7865141 L97.1385668,15.5020807 Z M96.4740768,9.26550894 L95.7274133,8.60373297 C95.6178079,8.55523168 95.4632583,8.62060299 95.3537754,8.73856905 L95.3561022,13.3429668 C95.3561022,13.3429668 95.4927721,13.9103451 96.016306,13.9795618 L96.4650144,13.8783417 L96.4740768,9.26550894 Z M39.8755885,7.546504 C39.8755885,7.546504 41.5930247,8.8180814 41.4360258,12.1293181 C41.2874768,15.2682573 38.5892258,16.3464498 38.5892258,16.3464498 L39.072714,15.8190137 C40.3470752,14.0353817 40.1004325,11.1966295 39.072714,9.3781411 C38.9356767,9.19778079 38.6753181,8.94795571 38.4423914,8.87861499 L38.4360233,13.0865674 C38.4580668,13.4650264 39.2371833,13.7647172 39.2371833,13.7647172 L38.1683168,14.9583948 C37.5239108,14.3444999 37.3372755,14.2664761 36.7157703,13.8757368 C36.8646867,13.8102414 36.8799947,13.5702159 36.8799947,13.5702159 L36.8799947,7.33190748 C36.8530526,7.22063981 36.6770717,7.08716822 36.6770717,7.08716822 C36.9188158,7.08716822 38.424879,5.10295671 38.424879,5.10295671 L38.4252464,8.63424786 L39.8755885,7.546504 Z M35.314169,7.546504 L36.2015437,7.546504 L36.2015437,8.95552241 L35.314169,8.95713499 L35.3155161,13.2217756 C35.5751399,13.6164844 36.0476063,13.7100137 36.0476063,13.7100137 C35.5106013,14.3241567 35.4992122,14.4350522 35.143454,14.9029471 C34.4103841,14.3444999 34.388463,14.311008 33.6634757,13.820165 C33.849866,13.7433816 33.8552544,13.514644 33.8552544,13.514644 L33.8552544,7.40720233 C33.8308841,7.23192783 33.6632307,7.10937213 33.6632307,7.10937213 C33.9523684,7.02291331 35.1114909,5.50684472 35.3079233,5.10295671 L35.314169,7.546504 Z M8.05293036,5.86074291 C8.35798838,5.83196465 8.90944413,5.70109799 9.23140219,5.36096871 C9.20531734,6.01567416 8.92928331,6.36361822 8.51315037,6.65016039 C7.45873466,7.37581914 6.43603714,6.55477038 6.43603714,6.55477038 L6.40848272,6.52698447 L6.42856683,11.7509832 C5.73664479,12.1187743 4.95593629,12.3636376 4.27062731,12.7454458 C4.27062731,12.7454458 6.42146391,13.8178081 7.54923561,13.5506169 C7.76942602,13.4985183 7.76513978,13.4340153 7.85857987,13.4088343 C7.91221914,13.3943211 7.98790194,13.4675072 7.98790194,13.4675072 C7.36431485,13.9670334 6.75309664,14.5743539 6.20139596,15.1127059 C4.96120224,14.7311458 3.19490284,14.2238049 1.85881975,14.0779289 C2.11917838,13.8419968 2.41566391,13.5893187 2.59874771,13.2728818 C3.67239028,11.4192889 2.60327888,8.99844172 1.5,7.31168827 C1.5,7.31168827 5.3670482,5.99942436 7.09366924,5 C7.1050584,5.53996453 7.67647579,5.89597147 8.05293036,5.86074291 Z M4.27515848,12.459896 L4.99512479,12.1293181 L4.99512479,6.45268198 C4.67304427,6.59830991 3.44730131,7.02725485 3.44730131,7.02725485 C4.13248783,8.65136596 4.70953856,10.6156063 4.27515848,12.459896 Z M29.706049,10.8767194 C29.706049,10.8767194 28.214314,11.3336984 27.3073451,12.0206553 L27.3073451,13.0754034 C27.7384186,13.4866101 28.6419586,13.8018064 29.1461432,13.4340153 L29.2284391,13.5450349 C28.6529804,14.0021379 28.0954014,14.4290981 27.5815421,14.9077848 C26.6755529,14.3658356 25.5406783,13.8599832 25.5406783,13.8599832 C25.5406783,13.8599832 25.8692494,13.536972 25.8922726,13.3254766 L25.8922726,8.91136267 C25.8305507,8.77950365 25.8372863,8.66166163 25.5736211,8.50586208 L28.3207353,7.45433914 L29.706049,10.8767194 Z M27.3122436,11.576453 C27.6849018,11.3215421 28.4695292,10.9558597 28.4695292,10.9558597 C28.0731129,10.2872613 27.312611,8.31880338 27.312611,8.31880338 L27.3122436,11.576453 Z" id="Fill-1" fill="#004574"></path>
    </g>
</svg>